<?xml version="1.0" standalone="no"?>
<!DOCTYPE svg PUBLIC "-//W3C//DTD SVG 20010904//EN"
 "http://www.w3.org/TR/2001/REC-SVG-20010904/DTD/svg10.dtd">
<svg version="1.0" xmlns="http://www.w3.org/2000/svg"
 width="300.000000pt" height="297.000000pt" viewBox="0 0 300.000000 297.000000"
 preserveAspectRatio="xMidYMid meet">
<metadata>
Created by potrace 1.10, written by Peter Selinger 2001-2011
</metadata>
<g transform="translate(0.000000,297.000000) scale(0.100000,-0.100000)"
fill="#000000" stroke="none">
<path d="M164 2806 l-34 -34 0 -1141 c0 -1238 -2 -1184 53 -1211 l22 -11 -21
18 c-12 10 -27 28 -33 40 -8 16 -11 342 -11 1163 l0 1142 29 29 30 29 1169 -2
c644 -2 1165 0 1159 4 -7 4 -533 8 -1170 8 l-1159 0 -34 -34z"/>
<path d="M2583 2690 c0 -41 2 -58 4 -37 2 20 2 54 0 75 -2 20 -4 3 -4 -38z"/>
<path d="M2583 2555 c0 -33 2 -45 4 -27 2 18 2 45 0 60 -2 15 -4 0 -4 -33z"/>
<path d="M910 2458 c0 -5 11 -8 24 -8 14 0 36 -10 50 -22 l25 -23 3 -293 c2
-160 0 -292 -3 -292 -3 0 -11 10 -18 23 -18 32 -56 57 -99 64 l-36 6 18 -29
c25 -40 54 -64 79 -64 20 0 20 1 -3 25 -13 14 -19 25 -13 25 11 0 46 -37 61
-65 11 -21 15 -62 13 -133 -1 -51 -35 -92 -77 -92 -15 0 -25 -3 -22 -6 8 -8
387 -8 395 0 4 3 -3 6 -15 6 -34 0 -69 20 -81 47 -7 16 -11 121 -11 309 0 239
3 290 16 315 11 21 19 28 27 21 18 -14 52 2 77 38 12 17 20 33 18 35 -13 13
-81 -20 -108 -53 l-30 -37 0 62 c0 34 5 73 11 86 12 27 47 47 81 47 12 0 19 3
15 6 -9 9 -397 10 -397 2z m273 -120 c-1 -51 -4 -236 -5 -410 -3 -283 -5 -318
-19 -318 -9 0 -21 10 -27 23 -7 14 -11 17 -11 7 -1 -9 6 -25 14 -37 15 -21 15
-22 -22 -17 -87 12 -78 -40 -78 429 l0 415 75 0 75 0 -2 -92z"/>
<path d="M1510 2459 c0 -4 11 -10 25 -13 15 -4 25 -13 25 -25 0 -17 -217 -312
-240 -326 -21 -13 -8 -25 28 -25 36 0 42 7 180 171 79 93 154 177 167 185 14
9 42 18 65 21 80 11 37 18 -105 18 -80 0 -145 -3 -145 -6z m130 -37 c0 -4 -17
-25 -37 -48 -21 -22 -52 -58 -70 -80 -55 -69 -83 -99 -83 -91 0 10 62 90 73
95 4 2 7 9 7 16 0 7 9 21 20 31 11 10 25 33 32 51 9 25 18 34 35 34 13 0 23
-3 23 -8z"/>
<path d="M1318 2028 c75 -28 124 -72 176 -162 21 -36 42 -66 47 -66 11 0 -9
58 -31 90 -31 45 -41 70 -30 70 10 0 95 -124 136 -200 10 -19 22 -39 27 -45 4
-5 23 -31 42 -57 19 -26 35 -49 35 -52 0 -10 -51 -6 -72 5 -15 8 -19 8 -14 0
10 -15 -5 -14 -50 5 -69 29 -100 61 -136 142 -57 125 -57 135 4 70 56 -61 77
-74 57 -35 -31 59 -151 177 -180 177 -7 0 67 -175 109 -255 26 -52 77 -100
126 -120 23 -10 89 -20 165 -25 153 -10 164 -7 81 20 -55 18 -108 81 -200 237
-35 59 -80 124 -100 143 -41 40 -113 67 -199 76 l-56 5 63 -23z"/>
<path d="M370 1220 l0 -140 85 0 c50 0 85 4 85 10 0 6 -30 10 -70 10 l-70 0 0
130 c0 109 -2 130 -15 130 -13 0 -15 -22 -15 -140z"/>
<path d="M1370 1220 c0 -106 3 -140 13 -140 9 0 11 26 9 110 -3 61 0 110 4
109 5 0 52 -52 104 -115 52 -63 96 -114 97 -114 2 0 3 65 3 145 0 128 -2 145
-17 145 -14 0 -15 -12 -10 -111 4 -61 3 -109 -2 -107 -4 2 -35 36 -69 76 -86
103 -121 142 -127 142 -3 0 -5 -63 -5 -140z"/>
<path d="M589 1242 c-28 -25 -34 -37 -34 -71 0 -57 39 -96 96 -96 114 0 121
173 8 191 -31 5 -42 1 -70 -24z m111 -24 c23 -25 25 -49 9 -81 -16 -29 -28
-37 -61 -37 -37 0 -68 32 -68 70 0 63 77 94 120 48z"/>
<path d="M828 1255 c-51 -28 -59 -112 -15 -153 33 -30 63 -35 99 -18 38 19 42
16 33 -23 -10 -47 -67 -67 -117 -40 -27 14 -36 3 -15 -19 27 -27 99 -23 131 7
25 24 26 29 26 138 0 62 -4 113 -9 113 -5 0 -11 -5 -13 -11 -2 -6 -14 -5 -33
5 -37 19 -52 19 -87 1z m88 -23 c54 -36 27 -132 -38 -132 -57 0 -88 68 -52
118 15 22 66 30 90 14z"/>
<path d="M1071 1256 c-69 -38 -64 -146 8 -176 62 -25 131 20 131 85 0 47 -14
71 -50 90 -35 18 -57 19 -89 1z m98 -42 c12 -15 21 -34 21 -44 0 -10 -9 -29
-21 -44 -43 -54 -119 -24 -119 48 0 65 79 91 119 40z"/>
<path d="M1702 1259 c-19 -6 -31 -15 -29 -22 3 -7 11 -10 18 -8 60 17 99 7 99
-25 0 -10 -13 -14 -39 -14 -55 0 -97 -36 -87 -74 11 -46 66 -55 109 -18 15 14
17 13 17 -1 0 -10 5 -17 10 -17 17 0 12 146 -6 164 -8 9 -19 16 -24 16 -5 0
-14 2 -22 4 -7 2 -28 0 -46 -5z m88 -94 c0 -2 -5 -16 -12 -30 -19 -43 -88 -47
-88 -6 0 11 8 25 18 30 17 10 82 15 82 6z"/>
<path d="M1922 1254 c-12 -8 -22 -10 -22 -5 0 6 -6 11 -12 11 -9 0 -13 -25
-14 -90 -1 -70 2 -90 12 -90 10 0 14 17 14 63 0 69 17 97 56 97 34 0 44 -21
44 -92 0 -39 4 -68 10 -68 6 0 10 24 10 53 0 63 18 101 48 105 40 6 52 -14 52
-89 0 -57 3 -69 16 -69 14 0 16 10 12 77 -4 64 -9 80 -28 95 -28 23 -52 23
-80 0 -23 -18 -24 -18 -42 0 -22 22 -46 23 -76 2z"/>
<path d="M2229 1242 c-66 -59 -28 -167 60 -167 39 0 75 20 65 36 -3 5 -13 5
-24 -1 -30 -16 -68 -12 -90 10 -33 33 -24 40 55 40 74 0 75 0 75 26 0 34 -50
84 -84 84 -14 0 -40 -13 -57 -28z m99 -14 c7 -7 12 -20 12 -30 0 -15 -9 -18
-60 -18 -64 0 -72 8 -40 40 22 22 69 27 88 8z"/>
<path d="M880 918 c-29 -11 -24 -15 11 -10 l31 5 -17 -34 c-10 -19 -26 -46
-37 -61 -11 -16 -15 -28 -9 -28 6 0 24 27 41 59 24 48 35 60 57 63 22 3 19 5
-14 9 -24 2 -52 1 -63 -3z"/>
<path d="M1542 914 c-12 -9 -8 -10 17 -6 l33 5 -17 -34 c-10 -19 -26 -46 -37
-61 -11 -16 -15 -28 -10 -28 5 0 23 27 41 59 25 48 37 60 59 63 18 3 11 5 -22
9 -28 2 -55 0 -64 -7z"/>
<path d="M1091 852 c-29 -31 -35 -34 -39 -19 -3 14 -9 17 -25 12 -46 -15 -77
-17 -77 -6 0 16 -27 13 -34 -4 -4 -10 2 -15 17 -17 34 -2 40 -1 63 6 15 4 23
2 27 -8 4 -10 1 -13 -9 -9 -7 3 -14 1 -14 -4 0 -20 14 -22 37 -3 17 13 39 19
69 18 25 0 48 2 51 6 3 3 11 2 17 -3 6 -5 30 -6 53 -2 23 5 47 5 54 0 7 -4 23
-3 37 2 15 6 29 6 36 0 13 -11 64 -3 72 11 4 6 -2 7 -16 3 -14 -4 -25 -3 -30
5 -6 10 -15 9 -43 -1 -27 -9 -42 -10 -60 -2 -14 7 -29 8 -38 2 -19 -12 -59
-11 -59 0 0 6 -16 3 -34 -4 -38 -16 -60 -3 -26 15 19 10 28 40 13 40 -5 0 -23
-17 -42 -38z"/>
<path d="M1790 862 c0 -5 -16 -16 -36 -26 -33 -15 -39 -15 -60 -2 -14 10 -25
12 -29 6 -3 -6 -15 -10 -26 -10 -11 0 -17 5 -14 10 3 6 -1 10 -9 10 -17 0 -22
-25 -8 -34 5 -3 22 -2 38 3 17 4 39 4 52 -2 17 -8 31 -6 57 6 32 15 35 15 35
1 0 -13 7 -15 32 -10 18 3 37 11 43 18 7 8 5 9 -10 3 -48 -18 -55 -18 -55 3 0
11 6 23 13 25 7 3 5 6 -5 6 -10 1 -18 -3 -18 -7z"/>
</g>
</svg>
